<svg width="15" height="14" viewBox="0 0 15 14" fill="none" xmlns="http://www.w3.org/2000/svg">
<path fill-rule="evenodd" clip-rule="evenodd" d="M12.6116 1.28575C12.4091 0.8808 11.9953 0.625 11.5425 0.625H3.45749C3.00474 0.625 2.59085 0.880799 2.38837 1.28575L1.29326 3.47599C1.18261 3.69729 1.125 3.94131 1.125 4.18873V11.7812C1.125 12.6615 1.83855 13.375 2.71875 13.375H12.2812C13.1615 13.375 13.875 12.6615 13.875 11.7812V4.18873C13.875 3.94131 13.8174 3.69729 13.7067 3.47599L12.6116 1.28575Z" fill="#0A8FEF"/>
<path d="M13.83 3.8125H1.17004M9.375 6.625C7.819 6.625 5.625 6.625 5.625 6.625M13.875 4.18873V11.7812C13.875 12.6615 13.1615 13.375 12.2812 13.375H2.71875C1.83855 13.375 1.125 12.6615 1.125 11.7812V4.18873C1.125 3.94131 1.18261 3.69729 1.29326 3.47599L2.38837 1.28575C2.59085 0.880799 3.00474 0.625 3.45749 0.625H11.5425C11.9953 0.625 12.4091 0.8808 12.6116 1.28575L13.7067 3.47599C13.8174 3.69729 13.875 3.94131 13.875 4.18873Z" stroke="white" stroke-linecap="round" stroke-linejoin="round"/>
</svg>
