<svg width="15" height="14" viewBox="0 0 15 14" fill="none" xmlns="http://www.w3.org/2000/svg">
<path d="M2.56442 5.96594L4.21442 6.66401C4.4183 6.25626 4.63561 5.86226 4.86636 5.48201C5.09711 5.10176 5.35142 4.72745 5.6293 4.35907L4.52886 4.1457C4.49036 4.13607 4.45311 4.13726 4.41711 4.14926C4.38099 4.16126 4.34849 4.18169 4.31961 4.21057L2.56442 5.96594ZM5.11142 7.3707L7.2418 9.48945C7.80042 9.25582 8.37974 8.93276 8.97974 8.52026C9.57974 8.10776 10.1495 7.63176 10.689 7.09226C11.5302 6.25101 12.1809 5.33445 12.641 4.34257C13.1012 3.35082 13.3288 2.33038 13.3239 1.28126C12.2749 1.27651 11.2538 1.50413 10.2605 1.96413C9.2673 2.42426 8.34999 3.07501 7.50861 3.91638C6.96924 4.45576 6.4933 5.0267 6.0808 5.6292C5.6683 6.23157 5.34517 6.81207 5.11142 7.3707ZM8.72305 5.8707C8.46917 5.61682 8.34224 5.3082 8.34224 4.94482C8.34224 4.58132 8.46917 4.27263 8.72305 4.01876C8.97692 3.76488 9.28867 3.63795 9.6583 3.63795C10.028 3.63795 10.3399 3.76488 10.5937 4.01876C10.8476 4.27263 10.9745 4.58132 10.9745 4.94482C10.9745 5.3082 10.8476 5.61682 10.5937 5.8707C10.3399 6.12457 10.028 6.25151 9.6583 6.25151C9.28867 6.25151 8.97692 6.12457 8.72305 5.8707ZM8.63942 12.0481L10.3946 10.2929C10.4235 10.264 10.4439 10.2315 10.4559 10.1954C10.4679 10.1594 10.4692 10.1221 10.4597 10.0836L10.2461 8.9832C9.87786 9.26107 9.50361 9.51345 9.12336 9.74032C8.74299 9.96732 8.34899 10.1828 7.94136 10.3866L8.63942 12.0481ZM14.3495 0.251508C14.51 1.69663 14.3391 3.06632 13.8367 4.36057C13.3344 5.65482 12.5077 6.87745 11.3567 8.02845L11.2918 8.09332L11.2269 8.1582L11.5657 9.85582C11.611 10.0817 11.6009 10.3014 11.5355 10.5149C11.4702 10.7284 11.3572 10.9154 11.1965 11.0759L8.2558 14.0095L6.84655 10.6981L3.9073 7.75863L0.595673 6.34226L3.51786 3.40863C3.67836 3.24813 3.8673 3.13395 4.08467 3.06607C4.30192 2.99832 4.52355 2.98707 4.74955 3.03232L6.46161 3.37844C6.48561 3.35444 6.50599 3.33282 6.52274 3.31357C6.53961 3.29432 6.56005 3.27263 6.58405 3.24851C7.73505 2.09763 8.95574 1.27026 10.2461 0.766382C11.5365 0.262507 12.9043 0.0908831 14.3495 0.251508ZM1.89092 10.0534C2.2563 9.68807 2.70174 9.50463 3.22724 9.50313C3.75261 9.50176 4.19799 9.68376 4.56336 10.0491C4.92874 10.4145 5.10955 10.8599 5.1058 11.3853C5.10192 11.9108 4.9173 12.3562 4.55192 12.7216C4.2683 13.0052 3.80292 13.2487 3.1558 13.4521C2.50867 13.6554 1.67836 13.8182 0.66486 13.9403C0.786985 12.9269 0.950923 12.0967 1.15667 11.4496C1.36255 10.8024 1.6073 10.3371 1.89092 10.0534ZM2.69286 10.8509C2.55824 10.9855 2.42842 11.2173 2.30342 11.5461C2.17842 11.875 2.0933 12.2106 2.04805 12.5528C2.39042 12.5077 2.72599 12.4233 3.05474 12.2997C3.38361 12.1762 3.61536 12.0471 3.74999 11.9125C3.89999 11.7625 3.97886 11.5824 3.98661 11.3723C3.99424 11.1622 3.92305 10.9821 3.77305 10.8321C3.62305 10.6821 3.44299 10.6103 3.23286 10.6165C3.02286 10.6228 2.84286 10.7009 2.69286 10.8509Z" fill="black"/>
</svg>
