<svg width="15" height="16" viewBox="0 0 15 16" fill="none" xmlns="http://www.w3.org/2000/svg">
<path d="M9.70765 14.75V7.518C9.70765 6.96572 9.25993 6.518 8.70765 6.518H6.16396C5.61168 6.518 5.16396 6.96571 5.16396 7.518V14.75M9.70765 14.75L9.70665 11.7603C9.70646 11.2079 10.1542 10.76 10.7066 10.76H13.25C13.8023 10.76 14.25 11.2077 14.25 11.76V13.75C14.25 14.3023 13.8023 14.75 13.25 14.75H9.70765ZM9.70765 14.75H5.16396M5.16396 14.75V2.25C5.16396 1.69772 4.71625 1.25 4.16396 1.25H1.75C1.19772 1.25 0.75 1.69772 0.75 2.25V13.75C0.75 14.3023 1.19772 14.75 1.75 14.75H5.16396Z" stroke="black" stroke-linecap="round" stroke-linejoin="round"/>
</svg>
