<svg width="19" height="20" viewBox="0 0 19 20" fill="none" xmlns="http://www.w3.org/2000/svg">
<path fill-rule="evenodd" clip-rule="evenodd" d="M10.5898 3.73547H3.9286L3.8706 3.75287C1.57995 4.44007 0.769384 6.41376 1.05499 8.18451C1.33687 9.93219 2.70776 11.5739 4.81425 11.5739C5.79469 11.5739 6.44213 11.3569 6.85589 10.9343C7.25747 10.5242 7.36177 9.98917 7.43712 9.58719L7.44052 9.56906C7.52287 9.12962 7.57632 8.84441 7.74499 8.63681C7.88672 8.46236 8.17867 8.27353 8.93961 8.27353C9.84492 8.27353 10.5576 8.0175 11.0784 7.6039C11.5968 7.19226 11.902 6.6427 12.0239 6.09399C12.1446 5.55104 12.0905 4.98559 11.8585 4.53827C11.6207 4.07958 11.1839 3.73547 10.5898 3.73547ZM6.7237 16.5245L13.3849 16.5245L13.4429 16.5071C15.7336 15.8199 16.5441 13.8462 16.2585 12.0755C15.9766 10.3278 14.6058 8.68607 12.4993 8.68607C11.5188 8.68607 10.8714 8.9031 10.4576 9.32569C10.056 9.73583 9.95174 10.2708 9.87639 10.6728L9.87299 10.6909L9.87299 10.691C9.79064 11.1304 9.73719 11.4156 9.56852 11.6232C9.42679 11.7976 9.13484 11.9865 8.3739 11.9865C7.46859 11.9865 6.75592 12.2425 6.23508 12.6561C5.71673 13.0677 5.41153 13.6173 5.2896 14.166C5.16894 14.709 5.22306 15.2744 5.455 15.7217C5.69284 16.1804 6.12964 16.5245 6.7237 16.5245ZM15.4439 12.2069C15.6716 13.6186 15.0537 15.1347 13.2624 15.6994H6.7237C6.49266 15.6994 6.31063 15.5794 6.18749 15.3419C6.05845 15.0931 6.00943 14.7303 6.09505 14.345C6.17939 13.9655 6.38988 13.5868 6.7482 13.3022C7.10403 13.0197 7.62901 12.8116 8.3739 12.8116C9.26317 12.8116 9.84786 12.5879 10.2089 12.1435C10.5152 11.7665 10.6038 11.2817 10.6709 10.9141L10.6874 10.8248C10.7667 10.4017 10.8428 10.1116 11.0472 9.90294C11.2393 9.70669 11.6232 9.51118 12.4993 9.51118C14.1057 9.51118 15.2101 10.7573 15.4439 12.2069Z" fill="#042658"/>
</svg>
