<svg width="17" height="14" viewBox="0 0 17 14" fill="none" xmlns="http://www.w3.org/2000/svg">
<path d="M2.78571 11.1905H2.02381C1.18223 11.1905 0.5 10.5082 0.5 9.66666V2.80951C0.5 1.96794 1.18223 1.28571 2.02381 1.28571H8.88095C9.72253 1.28571 10.4048 1.96794 10.4048 2.80951V9.66666C10.4048 10.5082 9.72253 11.1905 8.88095 11.1905H8.11905M11.5476 11.1905H11.1667C10.7459 11.1905 10.4048 10.8493 10.4048 10.4286V3.95237C10.4048 3.53158 10.7459 3.19047 11.1667 3.19047H13.0862C13.3176 3.19047 13.5365 3.29568 13.6811 3.47641L16.333 6.79129C16.4411 6.92639 16.5 7.09425 16.5 7.26725V10.4286C16.5 10.8493 16.1589 11.1905 15.7381 11.1905M7.35714 10.8095C7.35714 11.8615 6.50435 12.7143 5.45238 12.7143C4.40041 12.7143 3.54762 11.8615 3.54762 10.8095C3.54762 9.75754 4.40041 8.90475 5.45238 8.90475C6.50435 8.90475 7.35714 9.75754 7.35714 10.8095ZM15.3571 10.8095C15.3571 11.8615 14.5043 12.7143 13.4524 12.7143C12.4004 12.7143 11.5476 11.8615 11.5476 10.8095C11.5476 9.75754 12.4004 8.90475 13.4524 8.90475C14.5043 8.90475 15.3571 9.75754 15.3571 10.8095Z" stroke="black" stroke-linecap="round"/>
</svg>
